<?xml version="1.0" encoding="utf-8"?>
<!-- Generator: Adobe Illustrator 21.0.1, SVG Export Plug-In . SVG Version: 6.00 Build 0)  -->
<svg version="1.1" id="Слой_1" xmlns="http://www.w3.org/2000/svg" xmlns:xlink="http://www.w3.org/1999/xlink" x="0px" y="0px"
	 viewBox="0 0 70 50" style="enable-background:new 0 0 70 50;" xml:space="preserve">
<style type="text/css">
	.st0{fill:#A69E93;}
</style>
<g>
	<g>
		<path class="st0" d="M38.8,29.8c1.2,1.3,1,4,3,4.4c1.7,0.3,3.8-1.2,4.7-2.5c2.7-3.8,1-9,2.2-13.2c0.4-1.5-1.9-2.1-2.3-0.6
			c-0.9,3.2-0.3,6.6-0.9,9.8c-0.2,1.1-1.4,4.8-3.2,4.1c-0.4-0.2-1.3-3-1.9-3.6C39.4,27,37.7,28.7,38.8,29.8L38.8,29.8z"/>
	</g>
</g>
<g>
	<g>
		<path class="st0" d="M25.3,25.3c0.6,1.9,1.1,4.5,3.1,5.4c1.8,0.9,3.6,0,4.6-1.6c0.9-1.6,1-3.6,1.4-5.4c0.2-0.9,0.5-3,1.6-1.8
			c0.7,0.8,0.8,2.3,1,3.3c0.4,1.9,3.3,1.1,2.9-0.8c-0.4-1.9-1-4.5-2.8-5.6c-1.6-1-3.5-0.3-4.5,1.2c-1,1.5-1.2,3.5-1.5,5.3
			c-0.1,0.8-0.3,3.1-1.5,2.6c-0.8-0.3-1.1-2.6-1.3-3.3C27.6,22.7,24.7,23.5,25.3,25.3L25.3,25.3z"/>
	</g>
</g>
<g>
	<g>
		<path class="st0" d="M17.9,25.3c0.7-1.4,2.1-2.7,3.6-1.6c0.6,0.5,1.7,0.1,2.1-0.5c0.5-0.8,0.1-1.6-0.5-2.1c-2.8-2.2-6.3,0-7.7,2.7
			C14.4,25.5,17,27,17.9,25.3L17.9,25.3z"/>
	</g>
</g>
</svg>
