<svg version="1.1" id="Слой_1" xmlns="http://www.w3.org/2000/svg" xmlns:xlink="http://www.w3.org/1999/xlink" x="0px" y="0px"
	 viewBox="0 0 250 250" style="enable-background:new 0 0 250 250;" xml:space="preserve">
<style type="text/css">
	.st0{fill:#006F9A;}
	.st1{fill:#01ADEF;}
	.st2{font-family:'Gabriola';}
	.st3{font-size:200px;}
</style>
<g id="XMLID_1_">
	<g>
		<path class="st0" d="M132.9,29.5c56,0,101.4,47,101.4,105s-45.4,105-101.4,105s-101.4-47-101.4-105S76.9,29.5,132.9,29.5z
			 M231,135c0-56.3-44.1-102-98.5-102S34,78.7,34,135s44.1,102,98.5,102S231,191.3,231,135z"/>
		<ellipse class="st0" cx="132.5" cy="135" rx="98.5" ry="102"/>
	</g>
	<g>
	</g>
</g>
<text transform="matrix(1 0 0 1 99.3335 185.667)" class="st1 st2 st3">L</text>
<polygon class="st1" points="155.1,69.1 151.3,70.1 148.5,67.3 149.6,63.6 153.3,62.6 156.1,65.3 "/>
<polygon class="st1" points="142.5,111 135.7,111.7 131.7,106.2 134.5,100 141.3,99.3 145.3,104.8 "/>
<polygon class="st1" points="139,84.5 135.9,79.8 138.4,74.8 144,74.5 147.1,79.2 144.6,84.2 "/>
<polygon class="st1" points="147,102 150.2,89.4 162.7,85.9 172,95 168.8,107.6 156.3,111.1 "/>
<polygon class="st1" points="181,111.3 168,111.3 161.5,122.5 168,133.7 181,133.7 187.5,122.5 "/>
<polygon class="st1" points="151,138.5 140.2,143.2 130.7,136.2 132,124.5 142.8,119.8 152.3,126.8 "/>
</svg>
